<svg xmlns="http://www.w3.org/2000/svg" width="400" height="400" viewBox="0 0 400 400">
  <rect width="400" height="400" fill="#fffef0"/>
  <path d="M150 120 Q180 100 200 120 Q220 140 240 160 Q250 200 240 240 Q220 280 200 300 Q180 320 160 300 Q140 280 130 240 Q120 200 130 160 Q140 140 150 120" fill="#FFD700" stroke="#FFA500" stroke-width="3"/>
  <path d="M160 130 Q180 115 195 130 Q210 145 225 160 Q230 180 225 200 Q210 220 195 230 Q180 240 165 230 Q150 220 145 200 Q140 180 145 160 Q150 145 160 130" fill="#FFFF99" opacity="0.7"/>
  <ellipse cx="170" cy="160" rx="8" ry="15" fill="#FFA500" opacity="0.5"/>
  <ellipse cx="200" cy="180" rx="6" ry="12" fill="#FFA500" opacity="0.5"/>
  <ellipse cx="220" cy="200" rx="8" ry="15" fill="#FFA500" opacity="0.5"/>
  <text x="200" y="370" text-anchor="middle" font-family="Arial" font-size="24" fill="#FF8C00">香蕉</text>
</svg>